<?xml version="1.0" encoding="UTF-8" standalone="no"?>
<!-- Created with Inkscape (http://www.inkscape.org/) -->

<svg
   version="1.1"
   id="svg1"
   width="1200"
   height="630"
   viewBox="0 0 1200 630"
   sodipodi:docname="vaultica-logo.svg"
   inkscape:version="1.4 (e7c3feb1, 2024-10-09)"
   inkscape:export-filename="vaultica-logo-og.png"
   inkscape:export-xdpi="96"
   inkscape:export-ydpi="96"
   xmlns:inkscape="http://www.inkscape.org/namespaces/inkscape"
   xmlns:sodipodi="http://sodipodi.sourceforge.net/DTD/sodipodi-0.dtd"
   xmlns="http://www.w3.org/2000/svg"
   xmlns:svg="http://www.w3.org/2000/svg">
  <defs
     id="defs1" />
  <sodipodi:namedview
     id="namedview1"
     pagecolor="#ffffff"
     bordercolor="#000000"
     borderopacity="0.25"
     inkscape:showpageshadow="2"
     inkscape:pageopacity="0.0"
     inkscape:pagecheckerboard="true"
     inkscape:deskcolor="#d1d1d1"
     showgrid="false"
     inkscape:zoom="0.51953125"
     inkscape:cx="512"
     inkscape:cy="511.03759"
     inkscape:window-width="1440"
     inkscape:window-height="750"
     inkscape:window-x="0"
     inkscape:window-y="25"
     inkscape:window-maximized="0"
     inkscape:current-layer="g1" />
  <g
     inkscape:groupmode="layer"
     inkscape:label="Image"
     id="g1">
    <path
       style="fill:#000000;stroke-width:1.24768"
       d="M 221.30912,521.08824 C 172.27813,491.61975 129.35121,450.02487 106.90381,410.23299 81.618855,365.41106 64.417425,303.13547 59.903675,240.07514 c -0.76133,-10.63643 -1.72467,-32.61006 -2.14071,-48.83029 l -0.75648,-29.49131 3.62168,-0.72216 c 1.99191,-0.39718 5.8675,-1.06665 8.61238,-1.48771 41.299215,-6.33517 96.800085,-24.34167 148.354495,-48.13159 10.22791,-4.7197 19.55016,-8.58127 20.7161,-8.58127 1.16594,0 8.51835,3.01496 16.33871,6.6999 46.26098,21.79819 89.89548,36.40269 141.97352,47.51869 11.25004,2.40131 20.74131,4.65273 21.09175,5.00316 0.93274,0.93273 0.33469,31.83073 -1.0755,55.56441 -1.53759,25.87811 -5.5601,63.59794 -8.7272,81.83675 -7.59982,43.76611 -25.41344,91.3245 -45.75594,122.15824 -24.29054,36.81786 -55.11247,65.78472 -99.98364,93.96594 -22.48318,14.12051 -25.79474,14.56707 -40.86372,5.51034 z m 65.82742,-101.30038 c 21.95431,-6.781 39.19713,-26.15468 44.14152,-49.59654 1.43777,-6.81664 1.64437,-16.61796 1.05948,-50.26493 -0.661,-38.0247 -0.94781,-42.27149 -3.17779,-47.05272 -3.35336,-7.18984 -8.79447,-10.34037 -17.85823,-10.34037 -6.2872,0 -6.9837,-0.23609 -5.60332,-1.89935 1.17219,-1.41239 1.4086,-6.13068 0.92212,-18.40322 -1.01433,-25.58905 -6.07345,-37.62192 -21.92472,-52.14672 -17.11539,-15.68314 -38.27163,-22.30581 -58.24791,-18.2337 -28.20039,5.74857 -50.49071,25.90001 -55.53702,50.20793 -0.80524,3.87889 -1.24694,14.16567 -1.0163,23.66952 l 0.40792,16.80908 -6.23839,0.002 c -8.06073,0.003 -13.14777,3.1204 -17.68096,10.83254 l -3.52952,6.00504 -0.41013,44.05732 c -0.3875,41.62426 -0.26803,44.51815 2.16346,52.40238 6.35134,20.59454 21.4327,36.88572 40.33142,43.56676 8.77096,3.10069 23.44458,3.9365 59.68739,3.3998 29.9913,-0.44411 35.43697,-0.83038 42.51098,-3.01532 z m -64.58012,-40.9088 c 1.25723,-4.26426 3.26744,-21.80613 3.26744,-28.51302 0,-6.22191 -0.37747,-7.14148 -4.37053,-10.64742 -6.14087,-5.39176 -8.90464,-15.00626 -6.81618,-23.71194 3.41575,-14.23838 19.3846,-21.39671 33.01368,-14.79899 8.8308,4.27491 14.11236,14.43094 12.55864,24.1493 -0.94283,5.89732 -5.93815,15.12971 -8.77519,16.21838 -2.53994,0.97467 -2.57507,18.45762 -0.058,28.88188 0.99418,4.11733 1.82758,8.18787 1.85203,9.04564 0.0333,1.16731 -3.89965,1.55961 -15.63558,1.55961 -14.34682,0 -15.62529,-0.18566 -15.03628,-2.18344 z M 196.41706,248.29777 c 1.37778,-22.37368 5.31394,-33.18665 15.25936,-41.91885 7.67635,-6.73992 14.63979,-9.22101 26.00035,-9.26398 13.18097,-0.0498 20.68634,3.23264 29.73248,13.00356 8.19169,8.84798 10.79875,16.39521 12.01157,34.77247 0.48187,7.30151 1.31247,14.258 1.84578,15.4589 0.91312,2.05617 -1.55694,2.18343 -42.37828,2.18343 h -43.34789 z m 397.64216,144.85327 c -5.58628,-2.11792 -13.40276,-8.80207 -16.05021,-13.72511 -1.56856,-2.91682 -2.13813,-6.97341 -2.13509,-15.20706 0.005,-13.34684 2.65843,-19.73307 10.58515,-25.47516 7.48688,-5.42346 15.20115,-6.76951 34.74756,-6.06301 l 16.97405,0.61353 -0.40918,-8.42457 c -0.30053,-6.18759 -1.04727,-9.10947 -2.81233,-11.00406 -5.24984,-5.63504 -21.92262,-6.58755 -28.57652,-1.63254 -1.72529,1.28478 -4.04661,4.78409 -5.1585,7.77625 l -2.02159,5.44031 -11.07901,-0.37869 c -6.09343,-0.20827 -11.1959,-0.4918 -11.33881,-0.63006 -1.12376,-1.08724 3.84951,-15.83796 6.71393,-19.91355 8.75521,-12.45716 21.04662,-17.60427 40.20194,-16.83488 10.68107,0.42899 13.20127,0.99128 20.46051,4.565 4.72488,2.32606 9.92033,6.06014 12.10229,8.69821 6.84693,8.27816 7.49462,12.95632 7.49462,54.1321 v 37.20383 H 651.7847 639.81135 l 0.43235,-6.23916 c 0.2378,-3.43153 0.25572,-6.2388 0.0398,-6.23838 -0.21587,4.3e-4 -1.78563,1.65646 -3.48838,3.68006 -1.70275,2.02361 -6.25311,5.22396 -10.11191,7.11189 -5.69378,2.78571 -9.03363,3.49887 -17.7221,3.7842 -6.50768,0.21371 -12.35152,-0.27222 -14.90194,-1.23915 z m 29.67283,-19.54581 c 2.33751,-0.6704 6.40435,-2.71185 9.03741,-4.53655 4.69161,-3.25129 4.78738,-3.47453 4.78738,-11.15874 0,-7.56276 -0.12177,-7.8644 -3.4311,-8.49841 -15.63099,-2.99459 -27.31527,-1.75629 -30.8343,3.26783 -2.82946,4.03961 -2.44844,12.39912 0.75049,16.46591 4.32306,5.49588 10.89089,6.98354 19.69012,4.45996 z m 75.84335,19.16998 c -7.55061,-2.32071 -14.75623,-9.3886 -17.80155,-17.46127 -2.01737,-5.34776 -2.35865,-10.93695 -2.7535,-45.09423 l -0.45068,-38.98987 h 12.47018 12.47014 l 0.39877,35.24684 c 0.29646,26.20579 0.81921,35.98405 2.03797,38.12087 6.19795,10.86684 25.83086,9.90319 34.68821,-1.70259 l 3.59819,-4.7147 0.3692,-33.4752 0.3692,-33.47522 h 12.41947 12.41949 v 50.53086 50.53088 h -12.59224 -12.59223 l 0.42739,-6.86392 c 0.23506,-3.77516 0.39412,-6.86315 0.35344,-6.86221 -0.0407,9.3e-4 -2.953,2.77672 -6.47184,6.16843 -9.89536,9.53787 -24.66973,12.55633 -39.35961,8.04133 z m 156.87915,-0.94989 c -3.48349,-1.6221 -8.38418,-5.36308 -10.94528,-8.35513 -7.30566,-8.53503 -8.32431,-13.96482 -8.32431,-44.37175 V 312.5594 l -7.79797,-0.37145 -7.79798,-0.37146 -0.36238,-10.29333 -0.36236,-10.29332 h 8.16034 8.16035 v -11.22908 -11.22908 h 12.47676 12.47675 v 11.22908 11.22908 h 13.72444 13.72443 v 9.98141 9.9814 l -9.04565,0.0138 c -4.9751,0.008 -11.1511,0.36174 -13.72445,0.78708 l -4.67877,0.77336 v 24.22838 c 0,25.20575 0.88821,30.22805 5.67044,32.06317 1.11084,0.42627 7.3076,0.77503 13.77059,0.77503 h 11.75087 v 11.67914 11.67913 l -6.5503,0.78678 c -13.71972,1.64793 -23.68159,0.94062 -30.32552,-2.15314 z m 124.49206,0.56993 c -21.9757,-8.13262 -33.9662,-26.68059 -33.9662,-52.54174 0,-21.80297 10.97721,-39.69464 29.67021,-48.35927 6.45359,-2.99143 8.5683,-3.31041 22.10839,-3.33477 14.40159,-0.0259 15.26009,0.12328 22.53299,3.91536 4.1585,2.16826 9.6872,6.29589 12.286,9.17248 5.1887,5.74332 10.6898,16.46017 10.7089,20.8625 0.011,2.61895 -0.5214,2.80727 -7.9418,2.80727 -4.3745,0 -9.5681,0.32144 -11.5409,0.71433 -3.256,0.64839 -3.8174,0.22207 -6.0825,-4.61859 -3.6294,-7.75662 -7.7899,-10.27386 -17.9274,-10.84668 -12.78098,-0.72219 -19.18929,3.02622 -25.21829,14.75094 -4.0457,7.86768 -4.0402,21.67331 0.013,30.86955 3.4976,7.93687 10.81499,14.85305 16.9276,15.99979 12.18759,2.28641 22.27919,-1.76772 26.88799,-10.8017 2.3495,-4.60519 2.7732,-4.86013 7.146,-4.29908 2.5566,0.32804 7.9259,0.94048 11.9317,1.361 7.1349,0.74896 7.267,0.83243 6.4772,4.09223 -2.7487,11.34322 -12.5768,22.90064 -24.2724,28.54334 -9.5134,4.58983 -29.62409,5.45672 -39.74009,1.71304 z m 92.98229,0.68533 c -12.7504,-4.7511 -18.7168,-14.06675 -18.7563,-29.28533 -0.037,-14.32347 4.2551,-21.87898 15.9352,-28.05 4.1839,-2.21055 7.6897,-2.72196 21.3263,-3.11105 9.0895,-0.25935 18.407,0.11079 21.0317,0.83551 l 4.7125,1.30117 -0.4637,-9.1834 c -0.3386,-6.70429 -1.0863,-9.8712 -2.7696,-11.73118 -3.0384,-3.35739 -13.8973,-5.71989 -21.234,-4.61969 -7.0641,1.05935 -11.4186,4.70227 -13.523,11.31361 -0.8738,2.74488 -2.2881,4.93456 -3.1428,4.86593 -0.8548,-0.0686 -6.0566,-0.20898 -11.5594,-0.31191 l -10.0051,-0.18716 0.7726,-3.4311 c 2.3275,-10.33463 3.4479,-13.15857 7.1431,-18.00326 8.2267,-10.78587 20.3791,-15.99591 37.3104,-15.99591 17.9832,0 32.3096,7.08029 38.7705,19.16113 2.6643,4.98162 2.7779,6.62378 3.1402,45.4061 l 0.376,40.23754 h -12.0757 -12.0756 l 0.6073,-6.32046 0.6073,-6.32044 -4.5035,4.38735 c -6.7996,6.62422 -15.2371,9.86763 -26.9617,10.36419 -6.4645,0.27378 -11.6309,-0.19189 -14.6627,-1.32164 z m 30.5731,-20.03659 c 2.5747,-0.91882 6.6452,-3.16857 9.0457,-4.99943 4.1185,-3.14142 4.3643,-3.74358 4.3643,-10.69486 v -7.36602 l -4.6789,-0.89169 c -2.5733,-0.49044 -9.2639,-0.93696 -14.8682,-0.9923 -9.1241,-0.0901 -10.5246,0.21382 -13.3935,2.9062 -4.4253,4.15311 -5.3253,10.05157 -2.4349,15.95614 3.7261,7.61169 11.5829,9.78715 21.9655,6.08196 z M 497.8811,361.44903 c -11.83448,-35.11642 -35.60963,-104.67199 -36.9028,-107.96138 -0.78594,-1.99913 0.29985,-2.18343 12.86406,-2.18343 h 13.72245 l 1.8816,4.70257 c 1.03488,2.58641 5.05865,14.79804 8.94171,27.13695 12.35817,39.2696 24.65471,76.85291 25.01703,76.46235 0.19281,-0.20786 2.97888,-9.36119 6.19126,-20.34074 3.21238,-10.97954 8.8499,-29.50753 12.52784,-41.17329 3.67794,-11.66577 8.43173,-26.9654 10.56399,-33.99917 l 3.87685,-12.78867 h 13.75492 c 13.69386,0 13.75102,0.0125 12.87314,2.80727 -0.48499,1.54399 -11.12282,33.12579 -23.63962,70.18176 l -22.75782,67.37448 -14.24761,0.34936 -14.24759,0.34934 z m 288.14915,-40.89881 v -71.74136 h 12.47676 12.47676 v 71.74136 71.74136 h -12.47676 -12.47676 z m 121.02454,21.21048 v -50.53086 h 12.47676 12.47676 v 50.53086 50.53088 h -12.47676 -12.47676 z m 7.52927,-64.66768 c -11.39552,-3.84571 -13.60378,-20.87427 -3.50541,-27.03123 7.49883,-4.57205 15.4889,-2.6789 20.58029,4.87622 8.09813,12.01681 -3.29854,26.80422 -17.07488,22.15501 z"
       id="path1" />
  </g>
</svg>
