<svg xmlns="http://www.w3.org/2000/svg" viewBox="0 0 360 120" fill="none">
  <defs>
    <style>
      @import url('https://fonts.googleapis.com/css2?family=Inter:wght@800&amp;display=swap');
      .logo-text {
        font-family: 'Inter', -apple-system, BlinkMacSystemFont, 'Segoe UI', sans-serif;
        font-weight: 800;
        letter-spacing: -0.04em;
      }
    </style>
  </defs>
  
  <!-- Blink Icon (scaled to ~100px) -->
  <g transform="translate(15, 105) scale(0.017, -0.017)" fill="#27abec" stroke="none">
    <path d="M4195 3802 c-12 -2 -53 -46 -103 -110 -234 -306 -375 -489 -460 -602 -53 -69 -124 -162 -159 -206 -35 -45 -63 -85 -63 -89 0 -4 102 -140 227 -303 125 -164 297 -388 382 -499 l154 -203 198 0 c110 0 199 1 199 3 0 1 20 67 45 146 l44 143 -83 79 c-173 164 -260 348 -273 580 -14 253 63 469 231 647 68 72 178 154 244 181 23 10 35 25 50 64 35 89 56 156 51 161 -5 5 -653 13 -684 8z m404 -156 c-2 -2 -38 -30 -79 -63 -168 -133 -281 -314 -346 -553 -28 -103 -26 -377 5 -490 57 -213 181 -406 348 -540 l74 -60 -178 1 -178 0 -220 290 c-121 160 -266 350 -322 422 -57 73 -103 137 -103 142 0 6 24 40 53 76 28 37 158 205 287 375 129 169 252 330 273 356 l37 48 177 0 c97 0 174 -2 172 -4z"/>
    <path d="M5001 3795 c-4 -5 -34 -84 -65 -175 -64 -182 -137 -385 -287 -798 -54 -151 -99 -280 -99 -288 0 -12 30 -14 170 -14 94 0 170 -2 170 -5 0 -6 -52 -187 -115 -400 -30 -99 -63 -213 -74 -252 l-20 -73 102 0 102 1 105 151 c133 192 207 298 518 745 139 198 252 366 252 372 0 8 -62 11 -200 11 -110 0 -200 2 -200 4 0 2 63 132 140 290 l139 286 178 -2 177 -3 70 -91 c39 -50 125 -162 191 -249 66 -86 178 -232 249 -324 70 -91 131 -172 133 -179 3 -7 -21 -48 -54 -90 -305 -397 -553 -722 -567 -744 l-18 -28 -180 0 -179 0 74 60 c287 231 426 605 362 974 -33 190 -121 370 -250 513 -26 29 -60 62 -76 74 l-29 20 -31 -65 -31 -66 52 -60 c193 -222 267 -485 214 -760 -32 -169 -103 -308 -223 -433 -146 -153 -316 -237 -512 -253 l-77 -7 -50 -73 -51 -74 529 0 528 0 123 163 c67 89 159 209 204 267 149 192 416 543 427 560 9 15 -31 73 -247 356 -142 187 -277 362 -299 390 -23 28 -79 101 -126 163 -47 61 -89 111 -95 111 -5 0 -243 2 -528 3 -348 2 -521 -1 -526 -8z m461 -162 c-5 -10 -21 -43 -35 -73 -14 -30 -88 -185 -166 -343 -78 -159 -141 -291 -141 -293 0 -2 78 -4 174 -4 96 0 177 -3 179 -7 3 -5 -74 -120 -169 -258 -292 -418 -366 -521 -360 -500 3 11 35 120 71 242 36 123 67 235 68 250 l2 28 -162 3 c-90 1 -163 4 -163 6 0 2 11 33 25 69 13 36 60 166 104 289 122 344 212 591 217 600 3 4 86 8 185 8 168 0 179 -1 171 -17z"/>
  </g>
  
  <!-- Text: "Blink" -->
  <text x="150" y="82" class="logo-text" font-size="64" fill="#27abec">Blink</text>
</svg>
