<?xml version="1.0" encoding="UTF-8" standalone="no"?>
<!-- Created with Inkscape (http://www.inkscape.org/) -->

<svg
   version="1.1"
   id="svg1"
   width="64"
   height="64"
   viewBox="0 0 64 64"
   sodipodi:docname="vaultica-white-icon.svg"
   inkscape:version="1.4 (e7c3feb1, 2024-10-09)"
   inkscape:export-filename="vaultica-white-icon.png"
   inkscape:export-xdpi="768"
   inkscape:export-ydpi="768"
   xmlns:inkscape="http://www.inkscape.org/namespaces/inkscape"
   xmlns:sodipodi="http://sodipodi.sourceforge.net/DTD/sodipodi-0.dtd"
   xmlns="http://www.w3.org/2000/svg"
   xmlns:svg="http://www.w3.org/2000/svg">
  <defs
     id="defs1" />
  <sodipodi:namedview
     id="namedview1"
     pagecolor="#ffffff"
     bordercolor="#000000"
     borderopacity="0.25"
     inkscape:showpageshadow="2"
     inkscape:pageopacity="0.0"
     inkscape:pagecheckerboard="true"
     inkscape:deskcolor="#d1d1d1"
     showgrid="false"
     inkscape:zoom="3.9650497"
     inkscape:cx="22.950532"
     inkscape:cy="23.076634"
     inkscape:window-width="1440"
     inkscape:window-height="750"
     inkscape:window-x="0"
     inkscape:window-y="25"
     inkscape:window-maximized="0"
     inkscape:current-layer="g1">
    <inkscape:grid
       id="grid20"
       units="px"
       originx="0"
       originy="0"
       spacingx="1"
       spacingy="1"
       empcolor="#0099e5"
       empopacity="0.30196078"
       color="#0099e5"
       opacity="0.14901961"
       empspacing="5"
       enabled="true"
       visible="false" />
  </sodipodi:namedview>
  <g
     inkscape:groupmode="layer"
     inkscape:label="Image"
     id="g1">
    <g
       id="g20"
       transform="matrix(0.18817855,0,0,0.18817855,-8.1624102,-59.840779)">
      <path
         d="m 213.13672,475.01562 c -8.3364,-0.0823 -16.05026,5.28286 -18.10352,13.8418 -1.67388,6.97752 0.54104,14.68441 5.46289,19.00586 3.2004,2.80998 3.50391,3.5464 3.50391,8.5332 0,5.37551 -1.61148,19.43575 -2.61914,22.85352 -0.47209,1.6012 0.5539,1.75 12.05273,1.75 9.40624,0 12.55795,-0.31442 12.53125,-1.25 -0.0196,-0.6875 -0.68755,-3.95 -1.48437,-7.25 -2.01739,-8.35494 -1.98887,-22.36725 0.0469,-23.14844 2.27386,-0.87256 6.27754,-8.2714 7.03321,-12.99804 1.24529,-7.78917 -2.98861,-15.92917 -10.06641,-19.35547 -2.73089,-1.32201 -5.57862,-1.95498 -8.35742,-1.98243 z"
         id="path18"
         style="fill:#ffffff" />
      <path
         d="m 213.5,393.56836 c -9.10538,0.0344 -14.68732,2.02185 -20.83984,7.42383 -7.97116,6.99877 -11.12424,15.66536 -12.22852,33.59765 L 179.72852,446 h 34.74218 c 32.7179,0 34.69866,-0.102 33.9668,-1.75 -0.42744,-0.9625 -1.09425,-6.53854 -1.48047,-12.39063 -0.97207,-14.72918 -3.06139,-20.77756 -9.62695,-27.86914 -7.25039,-7.83129 -13.26566,-10.46177 -23.83008,-10.42187 z"
         id="path4"
         style="fill:#ffffff" />
      <path
         d="m 216.61914,372.45703 c -4.05553,-0.23506 -8.11644,0.0454 -12.11914,0.86133 -22.60234,4.60743 -40.46715,20.75963 -44.51172,40.24219 -0.6454,3.10889 -0.9993,11.35346 -0.81445,18.9707 l 0.32617,13.4707 -5,0.002 c -6.4606,0.003 -10.53858,2.50239 -14.17188,8.68359 L 137.5,459.5 l -0.32813,35.31055 c -0.31057,33.36144 -0.21443,35.68087 1.73438,42 5.09053,16.50632 17.17708,29.56513 32.32422,34.91992 7.02984,2.48517 18.79158,3.15477 47.83984,2.72461 24.03773,-0.35596 28.40057,-0.66677 34.07031,-2.41797 17.59618,-5.43491 31.41797,-20.96158 35.38086,-39.75 1.15236,-5.46347 1.31644,-13.31938 0.84766,-40.28711 -0.52978,-30.47642 -0.75956,-33.88079 -2.54687,-37.71289 C 284.13458,448.52452 279.77429,446 272.50977,446 c -5.03913,0 -5.59856,-0.18839 -4.49219,-1.52148 0.93949,-1.13202 1.13013,-4.91368 0.74023,-14.75 -0.81298,-20.50938 -4.86763,-30.1554 -17.57226,-41.79688 -10.28837,-9.42742 -22.39981,-14.76941 -34.56641,-15.47461 z M 213.5,393.56836 c 10.56442,-0.0399 16.57969,2.59058 23.83008,10.42187 6.56556,7.09158 8.65488,13.13996 9.62695,27.86914 0.38622,5.85209 1.05303,11.42813 1.48047,12.39063 0.73186,1.648 -1.2489,1.75 -33.9668,1.75 h -34.74218 l 0.70312,-11.41016 c 1.10428,-17.93229 4.25736,-26.59888 12.22852,-33.59765 6.15252,-5.40198 11.73446,-7.38939 20.83984,-7.42383 z m -0.36328,81.44726 c 2.7788,0.0274 5.62653,0.66042 8.35742,1.98243 7.0778,3.4263 11.3117,11.5663 10.06641,19.35547 -0.75567,4.72664 -4.75935,12.12548 -7.03321,12.99804 -2.03574,0.78119 -2.06426,14.7935 -0.0469,23.14844 0.79682,3.3 1.46478,6.5625 1.48437,7.25 0.0267,0.93558 -3.12501,1.25 -12.53125,1.25 -11.49883,0 -12.52482,-0.1488 -12.05273,-1.75 C 202.38852,535.83223 204,521.77199 204,516.39648 c 0,-4.9868 -0.30351,-5.72322 -3.50391,-8.5332 -4.92185,-4.32145 -7.13677,-12.02834 -5.46289,-19.00586 2.05326,-8.55894 9.76712,-13.92412 18.10352,-13.8418 z"
         style="fill:none"
         id="path3" />
      <path
         d="m 214.00781,318 c -0.93449,0 -8.40594,3.09415 -16.60351,6.87695 -41.32036,19.06739 -85.80338,33.50055 -118.9043,38.57813 -2.2,0.33747 -5.305839,0.87306 -6.902344,1.1914 l -2.902344,0.58008 0.605469,23.63672 c 0.333467,13.00035 1.10464,30.61172 1.714844,39.13672 3.617724,50.54225 17.406242,100.45457 37.671875,136.37891 17.99137,31.89281 52.39549,65.2309 91.69336,88.84961 12.07764,7.25888 14.7319,6.90143 32.75195,-4.41602 35.96381,-22.58698 60.66809,-45.80334 80.13672,-75.3125 16.30432,-24.71294 30.5807,-62.83009 36.67188,-97.9082 2.5384,-14.61823 5.76372,-44.85075 6.99609,-65.5918 1.13025,-19.02232 1.60891,-43.78758 0.86133,-44.53516 -0.28087,-0.28087 -7.88751,-2.08514 -16.9043,-4.00976 C 299.15449,352.54571 264.18125,340.84017 227.10352,323.36914 220.83558,320.41569 214.9423,318 214.00781,318 Z m 2.61133,54.45703 c 12.1666,0.7052 24.27804,6.04719 34.56641,15.47461 12.70463,11.64148 16.75928,21.2875 17.57226,41.79688 0.3899,9.83632 0.19926,13.61798 -0.74023,14.75 -1.10637,1.33309 -0.54694,1.52148 4.49219,1.52148 7.26452,0 11.62481,2.52452 14.3125,8.28711 1.78731,3.8321 2.01709,7.23647 2.54687,37.71289 0.46878,26.96773 0.3047,34.82364 -0.84766,40.28711 -3.96289,18.78842 -17.78468,34.31509 -35.38086,39.75 -5.66974,1.7512 -10.03258,2.06201 -34.07031,2.41797 -29.04826,0.43016 -40.81,-0.23944 -47.83984,-2.72461 -15.14714,-5.35479 -27.23369,-18.4136 -32.32422,-34.91992 -1.94881,-6.31913 -2.04495,-8.63856 -1.73438,-42 L 137.5,459.5 l 2.82812,-4.8125 c 3.6333,-6.1812 7.71128,-8.68059 14.17188,-8.68359 l 5,-0.002 -0.32617,-13.4707 c -0.18485,-7.61724 0.16905,-15.86181 0.81445,-18.9707 4.04457,-19.48256 21.90938,-35.63476 44.51172,-40.24219 4.0027,-0.81594 8.06361,-1.09639 12.11914,-0.86133 z"
         id="path2"
         style="fill:#ffffff" />
    </g>
  </g>
</svg>
