<?xml version="1.0" encoding="UTF-8" standalone="no"?>
<!-- Created with Inkscape (http://www.inkscape.org/) -->

<svg
   version="1.1"
   id="svg1"
   width="1024"
   height="1024"
   viewBox="0 0 1024 1024"
   sodipodi:docname="vaultica-logo-white.svg"
   inkscape:version="1.4 (e7c3feb1, 2024-10-09)"
   xmlns:inkscape="http://www.inkscape.org/namespaces/inkscape"
   xmlns:sodipodi="http://sodipodi.sourceforge.net/DTD/sodipodi-0.dtd"
   xmlns="http://www.w3.org/2000/svg"
   xmlns:svg="http://www.w3.org/2000/svg">
  <defs
     id="defs1" />
  <sodipodi:namedview
     id="namedview1"
     pagecolor="#ffffff"
     bordercolor="#000000"
     borderopacity="0.25"
     inkscape:showpageshadow="2"
     inkscape:pageopacity="0.0"
     inkscape:pagecheckerboard="0"
     inkscape:deskcolor="#d1d1d1"
     showgrid="false"
     inkscape:zoom="0.51953125"
     inkscape:cx="512"
     inkscape:cy="511.03759"
     inkscape:window-width="1440"
     inkscape:window-height="750"
     inkscape:window-x="0"
     inkscape:window-y="25"
     inkscape:window-maximized="0"
     inkscape:current-layer="g1" />
  <g
     inkscape:groupmode="layer"
     inkscape:label="Image"
     id="g1">
    <path
       style="fill:#ffffff"
       d="M 200.38149,653.22928 C 161.08362,629.61057 126.67811,596.27268 108.68674,564.37987 88.421107,528.45553 74.634319,478.54225 71.016595,428 70.406391,419.475 69.634297,401.86335 69.30083,388.863 l -0.606304,-23.637 2.902737,-0.5788 C 73.193768,364.32886 76.3,363.79228 78.5,363.45481 c 33.10092,-5.07758 77.58433,-19.50961 118.90469,-38.577 8.19757,-3.7828 15.66926,-6.87781 16.60375,-6.87781 0.93449,0 6.82738,2.41646 13.09532,5.36991 37.07773,17.47103 72.05036,29.1764 113.7904,38.08577 9.01679,1.92462 16.62396,3.72911 16.90483,4.00998 0.74758,0.74758 0.26825,25.51202 -0.862,44.53434 -1.23237,20.74105 -4.45637,50.97313 -6.99477,65.59136 -6.09118,35.07811 -20.36862,73.1957 -36.67294,97.90864 -19.46863,29.50916 -44.17211,52.72582 -80.13592,75.3128 -18.02005,11.31745 -20.67423,11.67536 -32.75187,4.41648 z m 52.76003,-81.19127 c 17.59617,-5.43491 31.41612,-20.96273 35.37901,-39.75115 1.15236,-5.46347 1.31794,-13.31913 0.84916,-40.28686 -0.52978,-30.47642 -0.75966,-33.88019 -2.54697,-37.71229 C 284.13503,448.52512 279.77404,446 272.50952,446 c -5.03913,0 -5.59737,-0.18922 -4.491,-1.52231 0.93949,-1.13202 1.12897,-4.91368 0.73907,-14.75 -0.81298,-20.50938 -4.86782,-30.15361 -17.57245,-41.79509 C 237.46732,375.36271 220.5108,370.05471 204.5,373.31846 c -22.60234,4.60743 -40.46781,20.75861 -44.51238,40.24117 -0.6454,3.10889 -0.99941,11.35365 -0.81456,18.97089 l 0.32694,13.47232 -5,0.002 c -6.4606,0.003 -10.53782,2.50097 -14.17112,8.68217 L 137.5,459.5 l -0.32872,35.31151 c -0.31057,33.36144 -0.21481,35.68087 1.734,42 5.09053,16.50632 17.1781,29.56355 32.32524,34.91834 7.02984,2.48517 18.79061,3.15507 47.83887,2.72491 24.03773,-0.35596 28.40239,-0.66555 34.07213,-2.41675 z M 201.38118,539.25 C 202.38884,535.83223 204,521.7726 204,516.39709 c 0,-4.9868 -0.30253,-5.72382 -3.50293,-8.5338 -4.92185,-4.32145 -7.13698,-12.02738 -5.4631,-19.0049 2.73768,-11.41192 15.53656,-17.14925 26.46014,-11.86124 7.0778,3.4263 11.31092,11.56626 10.06563,19.35543 -0.75567,4.72664 -4.75937,12.12631 -7.03323,12.99887 -2.03574,0.78119 -2.06389,14.79361 -0.0465,23.14855 0.79682,3.3 1.46479,6.5625 1.48438,7.25 0.0267,0.93558 -3.12553,1.25 -12.53177,1.25 -11.49883,0 -12.52352,-0.1488 -12.05143,-1.75 z M 180.43074,434.59036 c 1.10428,-17.93229 4.25907,-26.59878 12.23023,-33.59755 6.15252,-5.40198 11.73365,-7.39055 20.83903,-7.42499 10.56442,-0.0399 16.5799,2.59093 23.83029,10.42222 6.56556,7.09158 8.65509,13.14061 9.62716,27.8698 0.38622,5.85209 1.05193,11.42766 1.47937,12.39016 0.73186,1.648 -1.24787,1.75 -33.96577,1.75 h -34.74292 z m 318.70634,116.09849 c -4.47735,-1.69749 -10.74219,-7.05477 -12.86409,-11.00054 -1.25719,-2.33781 -1.71369,-5.58912 -1.71126,-12.18831 0.004,-10.69737 2.13071,-15.81586 8.4839,-20.41809 6.00066,-4.34686 12.18358,-5.4257 27.84983,-4.85945 l 13.60454,0.49174 -0.32795,-6.75221 c -0.24087,-4.9593 -0.83938,-7.30116 -2.25406,-8.81965 -4.2077,-4.51643 -17.57077,-5.27985 -22.90381,-1.30846 -1.3828,1.02973 -3.24331,3.8344 -4.13448,6.23259 l -1.62029,4.36035 -8.87971,-0.30351 c -4.88383,-0.16693 -8.97341,-0.39418 -9.08795,-0.50499 -0.90068,-0.87141 3.08534,-12.69398 5.38115,-15.96052 7.01722,-9.98429 16.86865,-14.10965 32.22147,-13.493 8.56076,0.34384 10.58068,0.79451 16.39889,3.65881 3.78695,1.86431 7.95104,4.85714 9.69987,6.97153 C 554.48088,483.43001 555,487.1795 555,520.1815 V 550 h -9.59651 -9.59652 l 0.34652,-5.00062 c 0.19058,-2.75034 0.20496,-5.00034 0.0319,-5 -0.17301,3.4e-4 -1.43117,1.32763 -2.7959,2.94953 -1.36474,1.6219 -5.01181,4.18695 -8.1046,5.70011 -4.56351,2.23272 -7.24038,2.80431 -14.2041,3.033 -5.21583,0.17129 -9.89962,-0.21818 -11.94376,-0.99317 z m 23.78248,-15.66578 c 1.8735,-0.53731 5.13303,-2.17351 7.2434,-3.636 3.76028,-2.60587 3.83704,-2.7848 3.83704,-8.94362 0,-6.06147 -0.0976,-6.30324 -2.75,-6.81139 -12.52808,-2.40014 -21.89292,-1.40765 -24.71339,2.61913 -2.26778,3.23771 -1.9624,9.93778 0.60151,13.19727 3.46489,4.40489 8.72894,5.59724 15.78144,3.57461 z m 60.78772,15.36456 c -6.05175,-1.86003 -11.82698,-7.52487 -14.26778,-13.99504 -1.6169,-4.28618 -1.89043,-8.76586 -2.20689,-36.14259 L 566.87139,469 h 9.99471 9.99471 l 0.3196,28.25 c 0.23761,21.00369 0.65659,28.84087 1.63341,30.55351 4.96761,8.70966 20.70319,7.93731 27.80227,-1.36461 L 619.5,522.66011 619.79591,495.83006 620.09182,469 H 630.04591 640 V 509.5 550 H 629.90745 619.8149 l 0.34255,-5.50136 c 0.1884,-3.02575 0.31588,-5.50075 0.28328,-5.5 -0.0326,7.5e-4 -2.3668,2.22552 -5.18712,4.94394 -7.93103,7.64451 -19.77255,10.06378 -31.54633,6.44505 z m 125.73711,-0.76133 c -2.79198,-1.3001 -6.71984,-4.29845 -8.77253,-6.69655 C 694.81644,536.089 694,531.73708 694,507.36622 V 486.09543 L 687.75,485.79772 681.5,485.5 681.20956,477.25 680.91912,469 H 687.45956 694 v -9 -9 h 10 10 v 9 9 h 11 11 v 8 8 l -7.25,0.011 c -3.9875,0.006 -8.9375,0.28993 -11,0.63084 l -3.75,0.61983 v 19.41882 c 0,20.20217 0.71189,24.22749 4.5448,25.69832 0.89033,0.34165 5.85697,0.62118 11.03699,0.62118 H 739 v 9.36071 9.36071 l -5.25,0.6306 c -10.99622,1.3208 -18.98057,0.7539 -24.30561,-1.72572 z m 99.77914,0.45679 C 791.61029,543.56488 782,528.69886 782,507.9714 c 0,-17.47487 8.7981,-31.81487 23.78033,-38.75949 5.17257,-2.3976 6.8675,-2.65326 17.71967,-2.67278 11.54279,-0.0208 12.23089,0.0988 18.05999,3.13812 3.33299,1.73784 7.76422,5.04609 9.84717,7.35166 4.15871,4.60321 8.56775,13.19266 8.58307,16.72109 0.009,2.09906 -0.41789,2.25 -6.36523,2.25 -3.50625,0 -7.66875,0.25763 -9.25,0.57252 -2.60963,0.51968 -3.05961,0.17799 -4.875,-3.70175 -2.90897,-6.21686 -6.24357,-8.2344 -14.36869,-8.69351 -10.24383,-0.57883 -15.38002,2.42548 -20.21227,11.82274 -3.2426,6.30587 -3.23808,17.37095 0.0101,24.74164 2.80337,6.36133 8.66809,11.90458 13.56736,12.82368 9.7682,1.83253 17.85658,-1.41681 21.55048,-8.65746 1.88303,-3.69102 2.22266,-3.89535 5.72737,-3.44567 2.04909,0.26292 6.35255,0.75379 9.56323,1.09083 5.71853,0.60028 5.82442,0.66718 5.19133,3.27988 -2.20298,9.09148 -10.08009,18.35464 -19.45407,22.87721 -7.62491,3.67871 -23.7434,4.37351 -31.85133,1.37298 z m 74.52444,0.54929 c -10.2193,-3.80796 -15.00128,-11.27437 -15.03296,-23.47191 -0.0298,-11.48012 3.4104,-17.53579 12.77188,-22.4818 3.35342,-1.77173 6.16321,-2.18162 17.09287,-2.49348 7.28509,-0.20787 14.75304,0.0888 16.85671,0.66966 l 3.77696,1.04287 -0.37168,-7.36041 c -0.27134,-5.37342 -0.87056,-7.91167 -2.21968,-9.40242 -2.43525,-2.69092 -11.13861,-4.58444 -17.01884,-3.70264 -5.66192,0.84906 -9.15192,3.76882 -10.83867,9.06775 -0.7003,2.2 -1.83382,3.955 -2.51892,3.9 -0.6851,-0.055 -4.85421,-0.1675 -9.26469,-0.25 l -8.01905,-0.15 0.61933,-2.75 c 1.86546,-8.28311 2.76348,-10.54647 5.72512,-14.42943 C 881.89994,470.17579 891.63995,466 905.21027,466 c 14.41343,0 25.89577,5.67478 31.07422,15.35745 2.13538,3.99273 2.22641,5.3089 2.51682,36.39255 l 0.30131,32.25 h -9.67854 -9.67854 l 0.48676,-5.06578 0.48676,-5.06578 -3.60953,3.51643 c -5.4498,5.30924 -12.21238,7.9088 -21.60953,8.30679 -5.18122,0.21944 -9.32202,-0.1538 -11.75203,-1.05928 z m 24.50406,-16.05913 c 2.06362,-0.73643 5.32612,-2.53958 7.25,-4.007 C 918.80305,528.04844 919,527.56581 919,521.99442 v -5.90379 l -3.75,-0.71468 c -2.0625,-0.39308 -7.42507,-0.75097 -11.91683,-0.79532 -7.31279,-0.0722 -8.43535,0.17138 -10.73469,2.3293 -3.54681,3.32867 -4.26826,8.05623 -1.95161,12.78869 2.98642,6.10069 9.28361,7.8443 17.60516,4.87463 z M 422.05125,525.28 c -9.48523,-28.14547 -28.54077,-83.89359 -29.57724,-86.53 -0.62992,-1.60229 0.24032,-1.75 10.31042,-1.75 h 10.99841 l 1.50808,3.76907 c 0.82945,2.07298 4.05446,11.86048 7.1667,21.75 9.90495,31.4742 19.76051,61.59686 20.0509,61.28383 0.15454,-0.1666 2.38755,-7.5029 4.96224,-16.3029 2.57469,-8.8 7.09311,-23.65 10.04094,-33 2.94783,-9.35 6.75795,-21.6125 8.46694,-27.25 L 469.08589,437 h 11.02444 c 10.9755,0 11.02131,0.01 10.31769,2.25 -0.38871,1.2375 -8.91483,26.55 -18.94692,56.25 l -18.24017,54 -11.41932,0.28 -11.41931,0.27999 z M 653,492.5 V 435 h 10 10 v 57.5 57.5 h -10 -10 z m 97,17 V 469 h 10 10 v 40.5 40.5 h -10 -10 z m 6.03463,-51.83052 c -9.1334,-3.08231 -10.9033,-16.73053 -2.80956,-21.66528 6.01025,-3.66445 12.41421,-2.14711 16.49491,3.90825 6.49057,9.63136 -2.64375,21.48332 -13.68535,17.75703 z"
       id="path1" />
  </g>
</svg>
